<mxfile host="Electron" agent="Mozilla/5.0 (Macintosh; Intel Mac OS X 10_15_7) AppleWebKit/537.36 (KHTML, like Gecko) draw.io/24.7.8 Chrome/128.0.6613.36 Electron/32.0.1 Safari/537.36" version="24.7.8">
  <diagram name="Page-1" id="LfVO9tP1I65s95D9D5qD">
    <mxGraphModel dx="984" dy="718" grid="1" gridSize="10" guides="1" tooltips="1" connect="1" arrows="1" fold="1" page="1" pageScale="1" pageWidth="850" pageHeight="1100" math="0" shadow="0">
      <root>
        <mxCell id="0" />
        <mxCell id="1" parent="0" />
        <mxCell id="0xb4To-1j9kdvUEWT-h--4" value="Trigger&lt;br&gt;(24Hr)" style="edgeStyle=orthogonalEdgeStyle;rounded=0;orthogonalLoop=1;jettySize=auto;html=1;fontFamily=Gloria Hallelujah;fontSource=https%3A%2F%2Ffonts.googleapis.com%2Fcss%3Ffamily%3DGloria%2BHallelujah;fontSize=12;fontColor=default;strokeWidth=2;flowAnimation=1;strokeColor=#FF00FF;" edge="1" parent="1" source="0xb4To-1j9kdvUEWT-h--1" target="0xb4To-1j9kdvUEWT-h--3">
          <mxGeometry relative="1" as="geometry" />
        </mxCell>
        <mxCell id="0xb4To-1j9kdvUEWT-h--1" value="Prisma&lt;div&gt;Cloud&lt;/div&gt;" style="rounded=1;whiteSpace=wrap;html=1;sketch=1;curveFitting=1;jiggle=2;fontFamily=Gloria Hallelujah;fontSource=https%3A%2F%2Ffonts.googleapis.com%2Fcss%3Ffamily%3DGloria%2BHallelujah;fontSize=16;" vertex="1" parent="1">
          <mxGeometry x="110" y="280" width="140" height="70" as="geometry" />
        </mxCell>
        <mxCell id="0xb4To-1j9kdvUEWT-h--10" value="Webhook" style="edgeStyle=orthogonalEdgeStyle;shape=connector;rounded=0;orthogonalLoop=1;jettySize=auto;html=1;exitX=0.5;exitY=1;exitDx=0;exitDy=0;entryX=0.5;entryY=1;entryDx=0;entryDy=0;strokeColor=#7F00FF;strokeWidth=2;align=center;verticalAlign=middle;fontFamily=Gloria Hallelujah;fontSource=https%3A%2F%2Ffonts.googleapis.com%2Fcss%3Ffamily%3DGloria%2BHallelujah;fontSize=12;fontColor=default;labelBackgroundColor=default;endArrow=classic;flowAnimation=1;" edge="1" parent="1" source="0xb4To-1j9kdvUEWT-h--2" target="0xb4To-1j9kdvUEWT-h--1">
          <mxGeometry relative="1" as="geometry">
            <Array as="points">
              <mxPoint x="660" y="420" />
              <mxPoint x="180" y="420" />
            </Array>
          </mxGeometry>
        </mxCell>
        <mxCell id="0xb4To-1j9kdvUEWT-h--2" value="Harbor&lt;div&gt;Registry&lt;/div&gt;" style="rounded=1;whiteSpace=wrap;html=1;sketch=1;curveFitting=1;jiggle=2;fontFamily=Gloria Hallelujah;fontSource=https%3A%2F%2Ffonts.googleapis.com%2Fcss%3Ffamily%3DGloria%2BHallelujah;fontSize=16;" vertex="1" parent="1">
          <mxGeometry x="590" y="280" width="140" height="70" as="geometry" />
        </mxCell>
        <mxCell id="0xb4To-1j9kdvUEWT-h--5" value="Scan" style="edgeStyle=orthogonalEdgeStyle;rounded=0;orthogonalLoop=1;jettySize=auto;html=1;entryX=0;entryY=0.5;entryDx=0;entryDy=0;fontFamily=Gloria Hallelujah;fontSource=https%3A%2F%2Ffonts.googleapis.com%2Fcss%3Ffamily%3DGloria%2BHallelujah;fontSize=12;fontColor=default;strokeWidth=2;flowAnimation=1;strokeColor=#FF00FF;" edge="1" parent="1" source="0xb4To-1j9kdvUEWT-h--3" target="0xb4To-1j9kdvUEWT-h--2">
          <mxGeometry relative="1" as="geometry" />
        </mxCell>
        <mxCell id="0xb4To-1j9kdvUEWT-h--3" value="Defender" style="rounded=1;whiteSpace=wrap;html=1;sketch=1;curveFitting=1;jiggle=2;fontFamily=Gloria Hallelujah;fontSource=https%3A%2F%2Ffonts.googleapis.com%2Fcss%3Ffamily%3DGloria%2BHallelujah;fontSize=16;" vertex="1" parent="1">
          <mxGeometry x="350" y="280" width="140" height="70" as="geometry" />
        </mxCell>
        <mxCell id="0xb4To-1j9kdvUEWT-h--7" value="Defender" style="rounded=1;whiteSpace=wrap;html=1;sketch=1;curveFitting=1;jiggle=2;fontFamily=Gloria Hallelujah;fontSource=https%3A%2F%2Ffonts.googleapis.com%2Fcss%3Ffamily%3DGloria%2BHallelujah;fontSize=16;" vertex="1" parent="1">
          <mxGeometry x="360" y="290" width="140" height="70" as="geometry" />
        </mxCell>
        <mxCell id="0xb4To-1j9kdvUEWT-h--8" value="Defender" style="rounded=1;whiteSpace=wrap;html=1;sketch=1;curveFitting=1;jiggle=2;fontFamily=Gloria Hallelujah;fontSource=https%3A%2F%2Ffonts.googleapis.com%2Fcss%3Ffamily%3DGloria%2BHallelujah;fontSize=16;" vertex="1" parent="1">
          <mxGeometry x="370" y="300" width="140" height="70" as="geometry" />
        </mxCell>
        <mxCell id="0xb4To-1j9kdvUEWT-h--9" value="Standard Flow" style="text;html=1;align=center;verticalAlign=middle;whiteSpace=wrap;rounded=0;fontFamily=Gloria Hallelujah;fontSource=https%3A%2F%2Ffonts.googleapis.com%2Fcss%3Ffamily%3DGloria%2BHallelujah;fontSize=16;fontColor=default;fontStyle=4" vertex="1" parent="1">
          <mxGeometry x="110" y="210" width="120" height="30" as="geometry" />
        </mxCell>
        <mxCell id="0xb4To-1j9kdvUEWT-h--11" value="" style="edgeStyle=orthogonalEdgeStyle;rounded=0;orthogonalLoop=1;jettySize=auto;html=1;fontFamily=Gloria Hallelujah;fontSource=https%3A%2F%2Ffonts.googleapis.com%2Fcss%3Ffamily%3DGloria%2BHallelujah;fontSize=12;fontColor=default;strokeWidth=2;flowAnimation=1;dashed=1;dashPattern=1 1;endArrow=none;endFill=0;" edge="1" parent="1" source="0xb4To-1j9kdvUEWT-h--12" target="0xb4To-1j9kdvUEWT-h--16">
          <mxGeometry relative="1" as="geometry" />
        </mxCell>
        <mxCell id="0xb4To-1j9kdvUEWT-h--12" value="Prisma&lt;div&gt;Cloud&lt;/div&gt;" style="rounded=1;whiteSpace=wrap;html=1;sketch=1;curveFitting=1;jiggle=2;fontFamily=Gloria Hallelujah;fontSource=https%3A%2F%2Ffonts.googleapis.com%2Fcss%3Ffamily%3DGloria%2BHallelujah;fontSize=16;" vertex="1" parent="1">
          <mxGeometry x="120" y="570" width="140" height="70" as="geometry" />
        </mxCell>
        <mxCell id="0xb4To-1j9kdvUEWT-h--13" value="Webhook" style="edgeStyle=orthogonalEdgeStyle;shape=connector;rounded=0;orthogonalLoop=1;jettySize=auto;html=1;exitX=0.5;exitY=1;exitDx=0;exitDy=0;entryX=0.5;entryY=1;entryDx=0;entryDy=0;strokeColor=#7F00FF;strokeWidth=2;align=center;verticalAlign=middle;fontFamily=Gloria Hallelujah;fontSource=https%3A%2F%2Ffonts.googleapis.com%2Fcss%3Ffamily%3DGloria%2BHallelujah;fontSize=12;fontColor=default;labelBackgroundColor=default;endArrow=classic;flowAnimation=1;" edge="1" parent="1" source="0xb4To-1j9kdvUEWT-h--14" target="0xb4To-1j9kdvUEWT-h--12">
          <mxGeometry relative="1" as="geometry">
            <Array as="points">
              <mxPoint x="670" y="710" />
              <mxPoint x="190" y="710" />
            </Array>
          </mxGeometry>
        </mxCell>
        <mxCell id="0xb4To-1j9kdvUEWT-h--14" value="Harbor&lt;div&gt;Registry&lt;/div&gt;" style="rounded=1;whiteSpace=wrap;html=1;sketch=1;curveFitting=1;jiggle=2;fontFamily=Gloria Hallelujah;fontSource=https%3A%2F%2Ffonts.googleapis.com%2Fcss%3Ffamily%3DGloria%2BHallelujah;fontSize=16;" vertex="1" parent="1">
          <mxGeometry x="600" y="570" width="140" height="70" as="geometry" />
        </mxCell>
        <mxCell id="0xb4To-1j9kdvUEWT-h--15" value="" style="edgeStyle=orthogonalEdgeStyle;rounded=0;orthogonalLoop=1;jettySize=auto;html=1;entryX=0;entryY=0.5;entryDx=0;entryDy=0;fontFamily=Gloria Hallelujah;fontSource=https%3A%2F%2Ffonts.googleapis.com%2Fcss%3Ffamily%3DGloria%2BHallelujah;fontSize=12;fontColor=default;strokeWidth=2;flowAnimation=1;dashed=1;dashPattern=1 1;endArrow=none;endFill=0;" edge="1" parent="1" source="0xb4To-1j9kdvUEWT-h--16" target="0xb4To-1j9kdvUEWT-h--14">
          <mxGeometry relative="1" as="geometry" />
        </mxCell>
        <mxCell id="0xb4To-1j9kdvUEWT-h--16" value="Defender" style="rounded=1;whiteSpace=wrap;html=1;sketch=1;curveFitting=1;jiggle=2;fontFamily=Gloria Hallelujah;fontSource=https%3A%2F%2Ffonts.googleapis.com%2Fcss%3Ffamily%3DGloria%2BHallelujah;fontSize=16;" vertex="1" parent="1">
          <mxGeometry x="360" y="570" width="140" height="70" as="geometry" />
        </mxCell>
        <mxCell id="0xb4To-1j9kdvUEWT-h--17" value="Defender" style="rounded=1;whiteSpace=wrap;html=1;sketch=1;curveFitting=1;jiggle=2;fontFamily=Gloria Hallelujah;fontSource=https%3A%2F%2Ffonts.googleapis.com%2Fcss%3Ffamily%3DGloria%2BHallelujah;fontSize=16;" vertex="1" parent="1">
          <mxGeometry x="370" y="580" width="140" height="70" as="geometry" />
        </mxCell>
        <mxCell id="0xb4To-1j9kdvUEWT-h--18" value="Defender" style="rounded=1;whiteSpace=wrap;html=1;sketch=1;curveFitting=1;jiggle=2;fontFamily=Gloria Hallelujah;fontSource=https%3A%2F%2Ffonts.googleapis.com%2Fcss%3Ffamily%3DGloria%2BHallelujah;fontSize=16;" vertex="1" parent="1">
          <mxGeometry x="380" y="590" width="140" height="70" as="geometry" />
        </mxCell>
        <mxCell id="0xb4To-1j9kdvUEWT-h--19" value="Workaround Flow" style="text;html=1;align=center;verticalAlign=middle;whiteSpace=wrap;rounded=0;fontFamily=Gloria Hallelujah;fontSource=https%3A%2F%2Ffonts.googleapis.com%2Fcss%3Ffamily%3DGloria%2BHallelujah;fontSize=16;fontColor=default;fontStyle=4" vertex="1" parent="1">
          <mxGeometry x="120" y="520" width="140" height="30" as="geometry" />
        </mxCell>
        <mxCell id="0xb4To-1j9kdvUEWT-h--20" value="1" style="ellipse;whiteSpace=wrap;html=1;aspect=fixed;rounded=1;sketch=1;jiggle=2;curveFitting=1;strokeColor=default;align=center;verticalAlign=middle;fontFamily=Gloria Hallelujah;fontSource=https%3A%2F%2Ffonts.googleapis.com%2Fcss%3Ffamily%3DGloria%2BHallelujah;fontSize=16;fontColor=default;labelBackgroundColor=default;fillColor=default;" vertex="1" parent="1">
          <mxGeometry x="500" y="220" width="40" height="40" as="geometry" />
        </mxCell>
        <mxCell id="0xb4To-1j9kdvUEWT-h--21" value="2" style="ellipse;whiteSpace=wrap;html=1;aspect=fixed;rounded=1;sketch=1;jiggle=2;curveFitting=1;strokeColor=default;align=center;verticalAlign=middle;fontFamily=Gloria Hallelujah;fontSource=https%3A%2F%2Ffonts.googleapis.com%2Fcss%3Ffamily%3DGloria%2BHallelujah;fontSize=16;fontColor=default;labelBackgroundColor=default;fillColor=default;" vertex="1" parent="1">
          <mxGeometry x="690" y="430" width="40" height="40" as="geometry" />
        </mxCell>
        <mxCell id="0xb4To-1j9kdvUEWT-h--22" value="2" style="ellipse;whiteSpace=wrap;html=1;aspect=fixed;rounded=1;sketch=1;jiggle=2;curveFitting=1;strokeColor=default;align=center;verticalAlign=middle;fontFamily=Gloria Hallelujah;fontSource=https%3A%2F%2Ffonts.googleapis.com%2Fcss%3Ffamily%3DGloria%2BHallelujah;fontSize=16;fontColor=default;labelBackgroundColor=default;fillColor=default;" vertex="1" parent="1">
          <mxGeometry x="550" y="797.5" width="40" height="40" as="geometry" />
        </mxCell>
        <mxCell id="0xb4To-1j9kdvUEWT-h--26" style="edgeStyle=orthogonalEdgeStyle;shape=connector;rounded=0;orthogonalLoop=1;jettySize=auto;html=1;entryX=1;entryY=0.5;entryDx=0;entryDy=0;strokeColor=#7F00FF;strokeWidth=2;align=center;verticalAlign=middle;fontFamily=Gloria Hallelujah;fontSource=https%3A%2F%2Ffonts.googleapis.com%2Fcss%3Ffamily%3DGloria%2BHallelujah;fontSize=12;fontColor=default;labelBackgroundColor=default;endArrow=classic;flowAnimation=1;" edge="1" parent="1" source="0xb4To-1j9kdvUEWT-h--24" target="0xb4To-1j9kdvUEWT-h--2">
          <mxGeometry relative="1" as="geometry" />
        </mxCell>
        <mxCell id="0xb4To-1j9kdvUEWT-h--24" value="Scan All" style="rounded=1;whiteSpace=wrap;html=1;sketch=1;curveFitting=1;jiggle=2;fontFamily=Gloria Hallelujah;fontSource=https%3A%2F%2Ffonts.googleapis.com%2Fcss%3Ffamily%3DGloria%2BHallelujah;fontSize=16;" vertex="1" parent="1">
          <mxGeometry x="710" y="370" width="90" height="40" as="geometry" />
        </mxCell>
        <mxCell id="0xb4To-1j9kdvUEWT-h--28" value="" style="edgeStyle=orthogonalEdgeStyle;shape=connector;rounded=0;orthogonalLoop=1;jettySize=auto;html=1;entryX=0.75;entryY=1;entryDx=0;entryDy=0;strokeColor=#7F00FF;strokeWidth=2;align=center;verticalAlign=middle;fontFamily=Gloria Hallelujah;fontSource=https%3A%2F%2Ffonts.googleapis.com%2Fcss%3Ffamily%3DGloria%2BHallelujah;fontSize=12;fontColor=default;labelBackgroundColor=default;endArrow=classic;flowAnimation=1;" edge="1" parent="1" source="0xb4To-1j9kdvUEWT-h--29" target="0xb4To-1j9kdvUEWT-h--14">
          <mxGeometry relative="1" as="geometry">
            <Array as="points" />
          </mxGeometry>
        </mxCell>
        <mxCell id="0xb4To-1j9kdvUEWT-h--27" value="Python Script" style="rounded=1;whiteSpace=wrap;html=1;sketch=1;curveFitting=1;jiggle=2;fontFamily=Gloria Hallelujah;fontSource=https%3A%2F%2Ffonts.googleapis.com%2Fcss%3Ffamily%3DGloria%2BHallelujah;fontSize=16;arcSize=50;fillColor=#fff2cc;gradientColor=#ffd966;strokeColor=#d6b656;" vertex="1" parent="1">
          <mxGeometry x="250" y="742.5" width="130" height="55" as="geometry" />
        </mxCell>
        <mxCell id="0xb4To-1j9kdvUEWT-h--30" value="&lt;meta charset=&quot;utf-8&quot;&gt;&lt;span style=&quot;color: rgb(0, 0, 0); font-family: &amp;quot;Gloria Hallelujah&amp;quot;; font-size: 12px; font-style: normal; font-variant-ligatures: normal; font-variant-caps: normal; font-weight: 400; letter-spacing: normal; orphans: 2; text-align: center; text-indent: 0px; text-transform: none; widows: 2; word-spacing: 0px; -webkit-text-stroke-width: 0px; white-space: nowrap; background-color: rgb(255, 255, 255); text-decoration-thickness: initial; text-decoration-style: initial; text-decoration-color: initial; display: inline !important; float: none;&quot;&gt;Trigger Per Image Scan&lt;/span&gt;&lt;div style=&quot;forced-color-adjust: none; color: rgb(0, 0, 0); font-family: &amp;quot;Gloria Hallelujah&amp;quot;; font-size: 12px; font-style: normal; font-variant-ligatures: normal; font-variant-caps: normal; font-weight: 400; letter-spacing: normal; orphans: 2; text-align: center; text-indent: 0px; text-transform: none; widows: 2; word-spacing: 0px; -webkit-text-stroke-width: 0px; white-space: nowrap; text-decoration-thickness: initial; text-decoration-style: initial; text-decoration-color: initial;&quot;&gt;(1000 per batch)&lt;/div&gt;" style="edgeStyle=orthogonalEdgeStyle;shape=connector;rounded=0;orthogonalLoop=1;jettySize=auto;html=1;entryX=0;entryY=0.5;entryDx=0;entryDy=0;strokeColor=#7F00FF;strokeWidth=2;align=center;verticalAlign=middle;fontFamily=Gloria Hallelujah;fontSource=https%3A%2F%2Ffonts.googleapis.com%2Fcss%3Ffamily%3DGloria%2BHallelujah;fontSize=12;fontColor=default;labelBackgroundColor=default;endArrow=classic;flowAnimation=1;" edge="1" parent="1" source="0xb4To-1j9kdvUEWT-h--27" target="0xb4To-1j9kdvUEWT-h--29">
          <mxGeometry x="-0.1938" relative="1" as="geometry">
            <mxPoint x="565" y="825" as="sourcePoint" />
            <mxPoint x="705" y="640" as="targetPoint" />
            <mxPoint as="offset" />
          </mxGeometry>
        </mxCell>
        <mxCell id="0xb4To-1j9kdvUEWT-h--29" value="Check&lt;div&gt;harbor&lt;/div&gt;&lt;div&gt;Queued Job&lt;br&gt;&amp;lt;100&lt;/div&gt;" style="rhombus;whiteSpace=wrap;html=1;rounded=1;sketch=1;jiggle=2;curveFitting=1;strokeColor=#d6b656;align=center;verticalAlign=middle;fontFamily=Gloria Hallelujah;fontSource=https%3A%2F%2Ffonts.googleapis.com%2Fcss%3Ffamily%3DGloria%2BHallelujah;fontSize=12;labelBackgroundColor=none;fillColor=#fff2cc;gradientColor=#ffd966;" vertex="1" parent="1">
          <mxGeometry x="650" y="715" width="110" height="110" as="geometry" />
        </mxCell>
      </root>
    </mxGraphModel>
  </diagram>
</mxfile>
